<?xml version="1.0" standalone="no"?>
<!DOCTYPE svg PUBLIC "-//W3C//DTD SVG 20010904//EN"
 "http://www.w3.org/TR/2001/REC-SVG-20010904/DTD/svg10.dtd">
<svg version="1.0" xmlns="http://www.w3.org/2000/svg"
 width="1200.000000pt" height="1200.000000pt" viewBox="0 0 1200.000000 1200.000000"
 preserveAspectRatio="xMidYMid meet">

<g transform="translate(0.000000,1200.000000) scale(0.100000,-0.100000)"
fill="#000000" stroke="none">
<path d="M5845 11473 c-41 -8 -161 -47 -185 -60 -14 -7 -30 -13 -36 -13 -6 0
-19 -9 -29 -20 -10 -11 -23 -20 -29 -20 -5 0 -22 -12 -37 -26 -24 -23 -37 -26
-109 -29 -114 -4 -236 -23 -295 -46 -28 -10 -54 -19 -58 -19 -17 0 -125 -55
-187 -96 -76 -50 -115 -86 -184 -174 -62 -80 -69 -90 -105 -165 -93 -192 -94
-340 -6 -532 8 -17 15 -35 15 -40 0 -6 9 -20 20 -33 11 -13 20 -28 20 -35 0
-18 123 -179 170 -221 23 -22 69 -54 101 -71 50 -28 70 -33 124 -33 35 0 67
-5 71 -11 5 -9 -8 -46 -37 -99 -5 -8 -21 -42 -37 -75 -71 -147 -75 -171 -42
-240 24 -49 64 -90 79 -80 16 9 13 36 -6 57 -15 17 -15 21 6 58 12 22 19 40
16 40 -8 0 43 44 88 75 75 54 313 154 367 155 8 1 33 9 55 20 22 11 60 19 85
20 25 0 73 8 105 17 85 24 330 25 400 1 28 -9 75 -20 105 -23 30 -4 72 -15 93
-26 21 -10 48 -19 62 -19 13 0 27 -5 30 -10 3 -6 26 -15 50 -21 25 -6 50 -17
56 -25 6 -8 18 -14 26 -14 16 0 100 -47 121 -67 7 -7 19 -13 26 -13 6 0 22 -8
35 -17 85 -65 142 -113 185 -152 70 -64 71 -35 2 44 -91 103 -191 172 -381
265 -214 104 -369 140 -599 140 -232 0 -452 -56 -713 -181 -100 -48 -134 -70
-184 -120 -33 -33 -63 -58 -66 -55 -9 9 28 108 78 208 108 216 133 315 134
538 0 138 3 165 15 165 11 0 16 -17 20 -70 4 -59 7 -67 16 -50 7 11 15 39 19
62 3 23 12 46 18 51 17 13 140 33 148 24 4 -4 1 -43 -7 -86 -7 -44 -12 -81
-10 -83 3 -3 40 122 51 173 3 18 26 51 55 79 55 54 70 87 18 38 -63 -58 -105
-82 -168 -97 -125 -30 -248 -17 -375 39 -31 14 -59 24 -61 22 -9 -8 77 -60
143 -86 l68 -28 3 -99 c3 -109 -10 -234 -34 -313 -13 -45 -18 -51 -52 -61
-131 -36 -245 24 -368 196 -54 75 -119 210 -139 289 -19 76 -19 204 0 280 22
83 86 210 143 280 83 103 237 214 355 255 65 23 336 75 345 66 3 -4 -3 -19
-14 -34 -34 -46 -76 -130 -72 -142 2 -7 24 14 48 46 64 82 147 147 253 199
131 63 204 79 372 79 126 0 148 -3 219 -28 134 -46 229 -110 277 -185 32 -52
40 -36 9 21 -19 36 -19 37 0 61 42 53 205 94 325 82 226 -24 421 -121 581
-287 89 -93 124 -149 161 -258 22 -66 25 -87 21 -180 -5 -124 -21 -169 -92
-247 -51 -57 -53 -66 -6 -32 38 28 56 20 71 -33 32 -113 0 -208 -101 -301 -81
-74 -145 -101 -252 -105 -119 -5 -193 17 -207 62 -6 17 -13 108 -17 202 -7
164 -6 172 12 176 11 3 -1 8 -26 12 -102 16 -149 30 -217 63 -74 36 -193 134
-193 159 0 8 16 37 36 64 20 28 34 53 31 57 -3 3 -20 -17 -37 -43 -57 -91
-144 -143 -299 -183 -199 -50 -405 -3 -589 135 -34 25 -65 44 -69 41 -10 -11
103 -114 160 -147 l57 -32 1 -51 1 -52 9 39 c5 22 11 41 13 43 2 2 30 -4 64
-12 33 -9 96 -19 139 -23 l78 -7 4 -65 4 -65 11 69 11 70 75 16 c79 18 156 44
174 59 6 5 20 11 30 13 17 3 19 -4 18 -77 l-1 -80 14 60 c8 33 14 76 15 96 0
20 3 39 6 42 4 4 36 -21 71 -54 75 -69 155 -111 264 -134 l76 -17 7 -126 c9
-174 44 -574 56 -646 6 -40 21 -77 45 -113 39 -59 42 -83 19 -139 -21 -50 -22
-51 -39 -28 -13 17 -13 16 -3 -13 15 -40 38 -37 81 10 22 25 27 40 27 82 0 36
-6 60 -19 76 -50 65 -70 137 -95 341 -8 65 7 74 73 48 65 -25 112 -25 191 0
34 11 67 20 73 20 22 0 150 95 194 144 25 28 59 79 76 114 25 54 29 72 25 130
-3 56 -9 76 -36 115 -17 26 -32 53 -32 59 0 6 15 41 33 77 30 62 32 72 32 176
0 85 -4 121 -19 155 -24 59 -63 136 -89 180 -23 39 -167 185 -211 215 -44 30
-99 63 -123 74 -11 5 -24 14 -27 20 -3 5 -21 13 -38 17 -18 3 -42 13 -54 21
-12 7 -68 25 -125 39 -88 22 -119 25 -204 21 -110 -5 -162 -22 -237 -74 -26
-18 -55 -33 -64 -33 -8 0 -39 16 -68 35 -29 19 -56 35 -61 35 -4 0 -21 7 -38
15 -18 8 -70 26 -116 40 -72 21 -103 25 -210 24 -69 -1 -135 -3 -146 -6z"/>
<path d="M5840 9731 c-30 -10 -77 -23 -105 -29 -77 -16 -145 -42 -200 -77 -27
-17 -72 -46 -100 -63 -85 -54 -265 -248 -265 -286 0 -9 -4 -16 -9 -16 -5 0
-13 -10 -16 -22 -4 -13 -15 -32 -25 -43 -10 -11 -22 -33 -26 -50 -4 -16 -13
-34 -20 -40 -7 -5 -16 -32 -20 -60 -3 -27 -10 -58 -15 -67 -6 -10 -8 -18 -5
-18 3 0 0 -15 -5 -32 -28 -93 -20 -341 13 -446 5 -18 10 -49 10 -68 0 -19 4
-34 10 -34 5 0 6 -5 3 -11 -4 -5 0 -18 8 -27 8 -9 18 -28 22 -42 4 -14 13 -32
19 -40 19 -23 56 -90 56 -101 0 -5 20 -30 45 -55 25 -24 45 -49 45 -53 0 -15
143 -147 174 -161 6 -3 31 -18 55 -35 78 -53 96 -65 106 -69 30 -14 138 -46
188 -55 31 -6 67 -16 80 -23 31 -18 288 -17 341 1 21 7 64 19 95 27 115 27
174 46 194 65 12 10 24 19 29 19 5 0 31 16 58 35 27 19 54 35 59 35 13 0 201
185 201 198 0 9 43 67 85 115 8 9 15 21 15 26 0 10 41 113 66 166 7 17 17 50
20 75 4 25 13 57 21 73 19 39 19 306 0 344 -8 16 -18 51 -22 78 -4 28 -11 55
-15 60 -4 6 -16 36 -25 67 -9 32 -20 60 -25 63 -4 2 -11 21 -14 40 -4 19 -10
35 -15 35 -4 0 -22 23 -40 50 -18 28 -38 56 -44 63 -7 7 -17 22 -23 32 -6 11
-24 29 -41 40 -16 11 -41 35 -54 52 -13 18 -32 35 -41 38 -10 4 -18 13 -18 21
0 8 -9 14 -19 14 -11 0 -27 7 -36 16 -24 24 -80 61 -104 69 -12 3 -26 15 -31
26 -8 14 -21 19 -55 19 -25 0 -45 4 -45 9 0 12 -56 31 -89 31 -15 0 -43 9 -64
20 -32 17 -56 20 -184 20 -116 -1 -160 -5 -203 -19z"/>
<path d="M2299 7296 c-2 -2 -35 -6 -72 -10 -38 -3 -72 -8 -75 -10 -4 -2 -45
-7 -91 -10 -52 -4 -89 -12 -98 -21 -8 -8 -24 -15 -36 -15 -12 0 -55 -18 -95
-40 -40 -22 -78 -40 -83 -40 -15 0 -67 -62 -88 -105 -45 -93 -31 -228 32 -297
17 -18 29 -35 26 -37 -4 -3 36 -26 99 -56 17 -8 32 -19 32 -24 0 -5 17 -12 38
-16 20 -4 45 -14 54 -22 9 -8 41 -17 70 -19 29 -3 73 -11 98 -19 25 -8 90 -19
144 -25 55 -6 105 -15 112 -21 7 -5 43 -12 81 -16 37 -3 86 -11 108 -18 22 -7
72 -16 110 -20 91 -8 174 -39 203 -75 31 -40 33 -102 2 -135 -13 -14 -28 -25
-32 -25 -5 0 -16 -6 -24 -14 -8 -8 -40 -17 -71 -21 -32 -4 -71 -11 -87 -17
-34 -14 -150 -17 -191 -5 -16 4 -64 12 -105 17 -115 13 -195 67 -210 140 -5
24 -10 25 -85 31 -138 9 -447 2 -455 -11 -11 -18 7 -96 30 -130 11 -16 29 -43
40 -60 11 -16 20 -33 20 -37 0 -7 97 -56 235 -120 17 -7 80 -18 140 -23 61 -6
121 -12 135 -15 30 -7 482 -7 513 -1 12 3 60 7 107 11 158 10 215 18 240 31
14 7 41 18 60 23 55 15 106 36 121 48 8 6 33 17 57 25 23 7 42 16 42 19 0 3
26 32 58 65 l57 59 0 113 c0 89 -3 116 -15 125 -8 7 -21 24 -29 40 -8 15 -17
27 -21 27 -3 0 -26 18 -50 40 -24 22 -49 40 -56 40 -6 0 -22 9 -36 19 -13 11
-42 23 -64 26 -21 4 -65 16 -96 26 -32 11 -70 19 -86 19 -16 0 -45 7 -64 15
-20 8 -70 18 -112 24 -42 5 -83 14 -90 20 -7 6 -62 14 -122 17 -60 3 -116 8
-124 12 -8 3 -22 6 -30 8 -64 8 -146 31 -153 41 -4 7 -13 13 -18 13 -6 0 -26
12 -45 28 -29 23 -34 33 -34 71 0 49 29 86 78 97 15 4 37 13 50 21 32 20 326
19 356 -1 12 -7 40 -17 64 -21 46 -7 86 -41 114 -94 l18 -32 250 3 c137 2 251
6 254 8 9 10 -14 102 -33 128 -10 15 -21 37 -25 49 -4 12 -19 26 -34 32 -34
14 -82 42 -100 58 -7 7 -25 16 -40 19 -15 4 -36 12 -47 19 -19 12 -97 24 -295
45 -75 9 -523 13 -531 6z"/>
<path d="M3847 7262 c-26 -3 -28 -6 -21 -35 6 -27 8 -975 2 -1157 -1 -30 -1
-69 0 -86 l2 -32 795 1 c917 0 818 -14 814 116 -1 43 1 83 5 89 3 6 1 14 -6
19 -7 4 -243 8 -524 8 -374 0 -515 3 -525 12 -11 9 -14 40 -13 135 1 162 6
185 47 194 34 7 195 7 576 0 128 -3 244 -1 257 4 15 6 26 6 30 -1 4 -6 11 -6
20 2 10 8 14 37 14 110 0 95 -1 99 -22 101 -13 1 -222 2 -465 2 -243 1 -444 4
-448 8 -6 6 -15 72 -16 113 -1 42 15 142 25 153 7 7 23 15 37 17 32 7 278 7
289 0 5 -3 11 -2 13 2 3 5 47 6 99 2 51 -3 98 -1 104 3 6 4 14 5 18 1 8 -9
426 -7 435 2 7 8 20 207 13 215 -4 5 -1509 7 -1555 2z"/>
<path d="M5820 7265 c-5 -28 -1 -1305 4 -1313 9 -14 507 -13 518 2 3 5 4 200
2 433 -3 292 -1 430 7 444 17 33 68 22 97 -21 38 -58 94 -120 108 -120 7 0 16
-9 19 -20 3 -11 10 -20 15 -20 5 0 11 -9 15 -19 3 -11 33 -48 65 -82 33 -35
60 -69 60 -76 0 -7 4 -13 10 -13 11 0 63 -49 76 -72 8 -13 70 -87 142 -166 12
-14 22 -29 22 -33 0 -5 6 -9 13 -9 6 0 25 -18 41 -40 16 -21 33 -37 37 -35 4
3 11 -7 17 -23 12 -35 106 -132 129 -133 60 -4 729 3 736 8 5 3 7 250 5 550
-2 300 -1 591 2 647 5 68 3 103 -4 108 -13 9 -451 10 -495 2 -29 -6 -31 -9
-26 -36 8 -37 15 -791 8 -836 -4 -23 -12 -34 -28 -38 -34 -8 -63 4 -71 29 -4
12 -15 28 -25 35 -11 7 -19 20 -19 28 0 8 -4 14 -9 14 -12 0 -71 59 -71 71 0
5 -6 9 -14 9 -8 0 -17 11 -20 25 -4 14 -13 25 -21 25 -8 0 -15 3 -15 8 0 4
-26 35 -58 69 -31 34 -79 87 -107 118 -27 31 -74 81 -102 111 -29 30 -53 57
-53 60 0 4 -24 32 -54 63 -49 51 -174 189 -212 234 -14 17 -39 18 -379 15
-201 -1 -365 -2 -365 -3z"/>
<path d="M9063 7263 c-7 -3 -13 -9 -13 -14 0 -5 -18 -35 -40 -66 -22 -32 -40
-64 -40 -70 0 -7 -4 -13 -8 -13 -5 0 -15 -12 -23 -27 -8 -15 -22 -35 -31 -45
-10 -10 -18 -25 -18 -33 0 -8 -5 -15 -11 -15 -5 0 -15 -14 -21 -30 -5 -17 -19
-35 -29 -41 -10 -5 -19 -16 -19 -24 0 -8 -7 -15 -15 -15 -8 0 -18 -12 -21 -27
-8 -29 -92 -143 -106 -143 -4 0 -8 -7 -8 -16 0 -18 -23 -53 -87 -132 -24 -30
-43 -61 -43 -69 0 -8 -18 -37 -40 -63 -22 -26 -40 -53 -40 -59 0 -6 -6 -11
-14 -11 -8 0 -19 -12 -25 -27 -23 -54 -44 -85 -82 -123 -21 -21 -39 -45 -39
-53 0 -9 -18 -35 -40 -59 -22 -24 -40 -47 -40 -51 0 -5 -9 -20 -20 -34 -11
-14 -20 -34 -20 -44 0 -16 16 -17 259 -16 255 2 260 3 284 25 13 12 29 40 36
61 6 21 18 44 26 51 8 7 15 17 15 22 0 17 45 70 70 83 19 10 128 13 475 14
470 1 515 -2 515 -40 0 -11 7 -22 15 -25 8 -4 12 -10 9 -15 -3 -5 -1 -9 4 -9
5 0 15 -13 22 -30 7 -16 16 -30 20 -30 5 0 14 -16 20 -35 6 -19 15 -35 20 -35
5 0 11 -8 14 -17 5 -17 29 -18 303 -18 298 0 326 3 288 35 -8 7 -15 18 -15 24
0 6 -21 37 -46 69 -25 32 -56 78 -68 102 -13 23 -29 49 -35 57 -50 58 -65 80
-89 126 -15 30 -42 70 -60 89 -18 20 -35 46 -38 59 -3 13 -12 28 -20 35 -8 6
-14 16 -14 22 0 5 -17 30 -37 56 -43 51 -55 71 -79 124 -9 20 -20 37 -25 37
-5 0 -15 11 -21 25 -6 14 -18 25 -26 25 -9 0 -12 3 -9 6 12 12 -51 116 -105
174 -9 10 -19 27 -23 39 -3 12 -11 21 -16 21 -5 0 -9 8 -9 19 0 10 -20 45 -45
77 -25 31 -45 64 -45 71 0 7 -12 18 -26 23 -26 10 -626 13 -651 3z m352 -330
c6 -17 17 -40 26 -50 8 -10 21 -30 28 -45 8 -15 19 -25 24 -21 6 3 7 1 3 -5
-7 -12 13 -62 26 -62 4 0 8 -8 8 -18 0 -10 11 -28 25 -40 14 -12 25 -28 25
-36 0 -7 7 -19 15 -26 8 -7 15 -20 15 -30 0 -10 16 -37 35 -60 25 -30 35 -52
35 -76 0 -39 27 -36 -265 -35 -402 1 -385 0 -391 16 -9 23 5 85 20 85 7 0 18
11 24 25 6 14 16 25 21 25 5 0 12 12 15 26 7 25 27 59 86 142 16 23 30 45 30
47 0 3 17 31 37 62 21 32 43 71 50 86 11 25 17 28 55 25 38 -3 44 -6 53 -35z"/>
<path d="M3185 5493 c-11 -2 -475 -4 -1032 -5 -556 -2 -1014 -6 -1017 -9 -12
-12 -15 -53 -5 -65 7 -8 7 -14 -1 -19 -6 -3 -7 -11 -3 -18 3 -6 8 -61 9 -123
1 -62 5 -118 9 -124 3 -5 3 -16 -2 -22 -11 -18 -13 -288 -2 -288 5 0 9 5 9 11
0 6 6 9 13 6 6 -2 11 -10 9 -16 -1 -8 361 -11 1379 -11 1366 0 1381 0 1406
-20 14 -11 33 -20 42 -20 28 0 88 -57 95 -90 3 -18 14 -44 24 -58 24 -35 24
-179 0 -196 -9 -6 -19 -26 -22 -44 -4 -17 -11 -32 -16 -32 -4 0 -13 -15 -20
-32 -7 -18 -18 -38 -24 -43 -16 -15 -56 -73 -56 -81 0 -15 -56 -119 -67 -127
-7 -4 -13 -14 -13 -22 0 -7 -11 -27 -25 -43 -14 -17 -25 -36 -26 -43 0 -8 -14
-36 -30 -64 -16 -27 -35 -62 -41 -77 -7 -16 -18 -28 -25 -28 -7 0 -15 -12 -18
-27 -4 -16 -11 -35 -16 -43 -5 -8 -16 -30 -24 -47 -9 -18 -20 -33 -25 -33 -5
0 -12 -11 -16 -24 -3 -14 -12 -27 -19 -30 -8 -3 -17 -21 -21 -40 -3 -20 -10
-36 -14 -36 -4 0 -15 -18 -24 -40 -9 -22 -20 -40 -24 -40 -5 0 -31 -44 -58
-97 -27 -53 -57 -105 -66 -115 -10 -10 -18 -24 -18 -31 0 -7 -9 -20 -20 -30
-11 -9 -20 -25 -20 -34 0 -10 -9 -29 -20 -43 -11 -14 -20 -31 -20 -38 0 -8 -9
-25 -20 -39 -11 -14 -20 -32 -20 -39 0 -8 -7 -14 -15 -14 -8 0 -17 -12 -20
-27 -4 -16 -11 -35 -16 -43 -5 -8 -16 -30 -24 -47 -9 -18 -20 -33 -25 -33 -5
0 -12 -11 -16 -24 -3 -14 -12 -27 -19 -30 -8 -3 -17 -21 -21 -40 -3 -20 -10
-36 -14 -36 -4 0 -15 -18 -24 -40 -9 -22 -20 -40 -24 -40 -5 0 -24 -29 -42
-65 -19 -37 -37 -68 -41 -71 -4 -2 -10 -17 -14 -33 -3 -16 -13 -32 -21 -35 -8
-3 -14 -12 -14 -20 0 -8 -11 -27 -25 -42 -14 -15 -25 -34 -26 -43 0 -9 -14
-38 -30 -66 -16 -27 -35 -62 -41 -77 -7 -16 -18 -28 -24 -28 -12 0 -24 -22
-24 -45 0 -13 -31 -65 -65 -110 -8 -10 -15 -25 -15 -32 0 -7 -5 -13 -10 -13
-6 0 -15 -12 -21 -28 -21 -56 -62 -132 -70 -132 -5 0 -14 -10 -19 -22 -6 -13
-14 -30 -20 -38 -5 -8 -14 -26 -20 -40 -11 -28 -17 -38 -77 -131 -24 -36 -43
-71 -43 -77 0 -11 135 -152 145 -152 8 0 93 -91 98 -105 4 -8 13 -15 21 -15 7
0 39 -27 69 -60 31 -33 60 -60 66 -60 5 0 29 -22 54 -50 49 -55 72 -62 83 -27
3 12 12 29 19 37 7 8 30 48 50 87 19 40 40 73 45 73 6 0 10 5 10 12 0 6 6 19
14 27 7 9 18 31 24 49 6 18 36 70 67 116 30 46 55 89 55 97 0 8 9 25 20 39 11
14 20 29 20 33 0 4 9 21 20 37 11 17 29 43 40 60 11 16 20 34 20 39 0 5 17 36
38 68 48 76 54 86 96 164 19 37 47 84 61 105 15 22 40 67 56 101 15 33 34 67
41 75 25 26 68 94 68 108 0 7 27 55 60 107 33 51 60 100 60 107 0 8 5 18 11
22 6 3 17 22 25 40 8 19 18 34 23 34 5 0 14 12 20 28 7 15 23 45 36 67 14 22
28 47 31 55 6 13 78 136 105 180 5 8 16 30 25 49 8 19 22 40 30 48 8 8 14 21
14 28 0 8 9 19 20 25 11 6 20 18 20 28 1 9 23 53 50 97 27 44 65 111 84 148
19 38 41 76 49 85 8 10 34 52 56 95 22 42 50 91 61 107 11 17 29 43 40 60 11
16 20 36 20 43 0 8 8 25 18 38 25 36 40 60 55 94 8 17 21 36 30 44 10 7 17 22
17 32 0 10 4 20 9 23 10 6 55 82 126 210 55 99 79 136 88 136 4 0 7 6 7 14 0
19 57 124 96 175 19 24 34 51 34 60 0 9 16 40 35 69 35 54 38 59 91 159 17 32
43 75 57 96 14 21 35 57 47 80 12 23 33 60 46 82 13 22 31 55 41 73 9 17 20
32 24 32 4 0 13 15 19 34 6 19 18 40 26 46 7 7 14 18 14 26 0 17 47 87 66 97
8 4 14 16 14 25 0 10 6 27 14 38 8 11 16 28 18 39 3 18 -23 19 -1167 19 -643
1 -1179 0 -1190 -1z"/>
<path d="M6500 5476 c-5 -5 7 -30 28 -60 38 -53 49 -71 87 -141 31 -59 46 -84
83 -137 17 -26 32 -56 32 -67 0 -11 11 -33 25 -49 14 -17 25 -34 25 -40 0 -5
7 -12 15 -16 8 -3 15 -12 15 -19 0 -8 9 -24 20 -37 11 -12 22 -38 26 -57 4
-19 13 -37 20 -40 8 -3 14 -11 14 -18 0 -7 6 -18 14 -24 16 -13 76 -133 76
-150 0 -6 4 -11 10 -11 5 0 17 -17 25 -37 9 -21 19 -40 23 -43 12 -8 52 -80
52 -92 0 -6 11 -26 25 -44 14 -18 25 -35 25 -38 0 -3 15 -27 34 -53 18 -27 36
-65 40 -85 4 -22 15 -42 26 -48 11 -6 20 -17 20 -25 0 -8 4 -15 9 -15 5 0 13
-10 16 -22 4 -13 15 -32 25 -43 10 -11 21 -34 25 -52 3 -17 13 -37 21 -44 8
-6 14 -17 14 -24 0 -7 6 -18 14 -24 7 -6 31 -45 52 -86 62 -119 73 -138 81
-144 5 -3 14 -17 21 -31 6 -14 16 -33 22 -42 19 -33 29 -53 46 -85 9 -18 22
-37 30 -44 8 -6 14 -17 14 -23 0 -7 8 -21 19 -32 10 -11 21 -36 25 -57 4 -20
14 -40 22 -45 16 -9 34 -37 54 -82 6 -14 17 -32 25 -40 7 -8 16 -26 20 -39 4
-14 22 -46 39 -71 17 -25 45 -73 61 -105 17 -33 35 -65 41 -72 6 -6 17 -25 24
-42 7 -17 16 -31 21 -31 5 0 9 -6 9 -12 0 -7 9 -24 20 -38 11 -14 20 -32 20
-41 0 -9 18 -41 40 -73 22 -31 40 -60 40 -65 0 -4 8 -16 19 -27 10 -11 21 -36
25 -57 4 -20 14 -40 22 -45 17 -9 36 -40 55 -84 6 -16 15 -28 19 -28 4 0 11
-12 15 -27 3 -16 21 -50 39 -78 19 -27 48 -79 67 -115 18 -36 35 -67 38 -70 4
-3 14 -22 23 -42 10 -21 22 -38 28 -38 5 0 10 -6 10 -12 0 -7 9 -24 20 -38 11
-14 20 -32 20 -40 0 -16 77 -142 104 -172 9 -10 16 -29 16 -43 0 -14 9 -34 20
-45 11 -11 20 -24 20 -28 0 -5 9 -17 20 -27 11 -10 20 -22 20 -28 0 -5 10 -26
22 -46 12 -19 24 -44 25 -55 2 -11 7 -23 11 -26 15 -10 53 -69 93 -147 23 -43
48 -90 56 -105 8 -16 19 -28 24 -28 5 0 9 -6 9 -12 0 -13 40 -93 76 -155 18
-31 64 -48 64 -23 0 5 14 22 32 37 18 16 61 55 95 88 35 33 71 64 81 69 9 5
42 36 74 68 31 32 60 58 63 58 3 0 22 17 43 38 20 20 55 51 76 67 46 36 45 44
-19 140 -25 37 -45 69 -45 72 0 3 -8 17 -19 31 -10 15 -22 42 -26 59 -3 18
-12 36 -18 40 -16 11 -67 86 -67 100 0 6 -6 16 -14 22 -8 7 -17 24 -21 39 -4
15 -21 45 -39 67 -33 40 -86 141 -86 163 0 7 -4 12 -8 12 -8 0 -62 76 -62 88
0 4 -9 18 -20 32 -11 14 -20 33 -20 44 0 10 -10 29 -22 41 -26 25 -60 73 -56
77 2 2 -7 19 -20 39 -12 20 -22 42 -22 49 0 11 -52 91 -77 118 -7 7 -13 22
-13 32 0 10 -4 21 -9 24 -8 6 -58 86 -103 167 -9 17 -24 39 -34 50 -9 10 -14
19 -11 19 4 0 -11 28 -33 63 -21 34 -48 77 -59 95 -12 18 -21 42 -21 53 0 11
-11 30 -25 43 -14 13 -25 28 -25 35 0 6 -4 11 -9 11 -5 0 -14 15 -22 33 -7 17
-19 36 -26 40 -7 4 -13 17 -13 27 0 11 -5 20 -11 20 -5 0 -7 5 -4 11 4 5 -4
20 -17 32 -14 13 -23 27 -21 33 2 6 -6 19 -17 29 -11 10 -20 23 -20 28 0 18
-52 117 -61 117 -5 0 -9 6 -9 14 0 7 -10 26 -22 42 -12 15 -23 34 -24 41 -1 7
-9 20 -18 29 -9 8 -16 24 -16 35 0 10 -9 28 -20 39 -12 12 -25 32 -30 45 -5
14 -15 24 -22 23 -8 -2 -12 5 -10 15 2 10 -6 30 -18 46 -11 16 -20 35 -20 43
0 7 -20 42 -45 78 -25 36 -45 70 -45 76 0 7 -7 14 -14 17 -8 3 -18 22 -21 41
-4 19 -13 37 -21 40 -8 3 -14 12 -14 19 0 8 -9 22 -20 32 -20 18 -70 110 -70
130 0 6 -10 19 -21 29 -19 16 -21 26 -17 107 4 75 7 92 26 109 12 12 22 28 22
38 1 26 46 72 82 84 18 6 40 17 49 24 13 12 249 14 1381 14 l1366 0 -2 25 c-3
27 12 23 22 -6 10 -27 33 -8 39 32 2 19 6 138 8 264 2 127 6 253 9 282 3 36 0
55 -9 63 -16 14 -4341 20 -4355 6z"/>
<path d="M5974 4673 c-4 -16 -15 -39 -26 -52 -10 -13 -18 -32 -18 -42 0 -10
-6 -22 -13 -26 -13 -7 -69 -107 -99 -175 -7 -16 -18 -28 -25 -28 -7 0 -15 -12
-18 -27 -4 -16 -11 -35 -16 -43 -5 -8 -17 -31 -25 -50 -9 -19 -20 -37 -24 -40
-4 -3 -12 -15 -19 -28 -7 -12 -16 -20 -21 -17 -4 3 -11 -13 -15 -35 -4 -22
-10 -40 -15 -40 -4 0 -14 -14 -21 -32 -7 -18 -21 -41 -31 -53 -40 -46 -45 -53
-52 -80 -4 -16 -16 -41 -27 -56 -10 -15 -19 -31 -19 -36 0 -6 -9 -18 -20 -28
-11 -10 -20 -24 -20 -30 0 -7 -6 -18 -14 -24 -8 -7 -18 -26 -21 -42 -4 -16
-10 -29 -15 -29 -5 0 -14 -16 -21 -35 -7 -19 -17 -35 -21 -35 -4 0 -14 -16
-22 -35 -8 -19 -19 -35 -25 -35 -5 0 -12 -14 -16 -30 -4 -17 -22 -53 -41 -81
-19 -28 -37 -62 -40 -75 -3 -13 -12 -24 -19 -24 -14 0 -25 -22 -25 -51 0 -10
-4 -19 -9 -19 -5 0 -14 -13 -21 -30 -7 -16 -16 -30 -20 -30 -4 0 -13 -15 -20
-32 -7 -18 -19 -38 -25 -43 -7 -6 -26 -40 -43 -76 -17 -36 -38 -71 -46 -78 -9
-8 -16 -19 -16 -25 0 -6 -9 -19 -20 -29 -11 -9 -20 -28 -20 -41 0 -13 -7 -26
-15 -30 -8 -3 -15 -13 -15 -23 0 -16 -21 -47 -64 -95 -9 -10 -19 -30 -22 -45
-4 -16 -15 -39 -26 -52 -10 -13 -18 -29 -18 -36 0 -7 -7 -15 -15 -19 -8 -3
-15 -12 -15 -19 0 -8 -9 -22 -20 -32 -11 -10 -20 -23 -20 -29 0 -6 -7 -24 -16
-41 -9 -16 -23 -42 -31 -57 -8 -16 -19 -28 -24 -28 -5 0 -9 -6 -9 -14 0 -7 -9
-24 -19 -38 -11 -13 -23 -37 -26 -51 -4 -15 -11 -27 -15 -27 -5 0 -14 -16 -20
-35 -6 -19 -15 -35 -20 -35 -4 0 -14 -15 -21 -32 -7 -18 -21 -39 -31 -46 -10
-7 -18 -20 -18 -28 0 -19 -41 -97 -57 -107 -6 -4 -14 -21 -18 -37 -4 -17 -13
-30 -20 -30 -13 0 -25 -21 -25 -45 0 -16 -51 -95 -61 -95 -4 0 -10 -13 -14
-30 -4 -16 -13 -30 -21 -30 -8 0 -14 -5 -14 -10 0 -19 -58 -136 -74 -149 -9
-8 -16 -20 -16 -28 0 -7 -6 -16 -14 -19 -8 -3 -17 -20 -20 -39 -4 -18 -13 -35
-20 -38 -7 -3 -17 -18 -21 -34 -3 -15 -13 -35 -21 -43 -48 -50 -64 -74 -64
-95 0 -13 -5 -27 -11 -31 -6 -3 -17 -22 -25 -40 -8 -19 -19 -34 -24 -34 -6 0
-10 -9 -10 -19 0 -10 -6 -21 -13 -24 -7 -3 -19 -23 -27 -46 -7 -23 -19 -46
-27 -52 -7 -6 -13 -16 -13 -22 0 -6 -10 -21 -21 -33 -23 -24 -41 -52 -60 -94
-6 -14 -15 -32 -20 -40 -5 -8 -14 -27 -20 -42 -6 -14 -17 -29 -25 -32 -8 -3
-14 -11 -14 -18 0 -7 -11 -26 -25 -42 -14 -16 -25 -37 -25 -46 0 -9 -9 -25
-20 -35 -25 -23 -25 -35 -1 -35 10 0 24 -7 31 -15 7 -8 18 -15 25 -15 7 0 23
-9 37 -19 13 -11 38 -23 54 -27 30 -7 185 -84 207 -102 7 -6 25 -14 41 -18 29
-7 104 -44 140 -70 33 -23 63 -18 75 14 11 28 15 35 66 112 17 25 44 72 60
105 17 33 35 65 41 70 14 13 104 171 104 184 0 5 3 11 8 13 10 4 57 78 76 119
9 19 34 61 56 94 21 33 51 84 66 113 14 29 35 65 47 80 12 15 33 47 46 72 13
25 30 52 37 61 8 8 14 20 14 25 0 5 20 38 45 74 25 36 45 71 45 79 0 8 7 23
17 33 18 20 35 48 56 93 8 17 21 36 30 44 10 7 17 22 17 32 0 10 5 21 10 24 6
4 19 23 30 43 12 20 29 51 40 67 11 17 27 44 36 60 8 17 26 48 39 70 13 22 32
54 41 70 9 17 20 32 24 35 4 3 15 21 24 40 9 19 27 53 41 75 14 22 29 50 34
61 5 12 17 24 25 27 9 4 16 14 16 23 0 9 10 33 21 53 26 43 72 114 79 121 3 3
21 37 40 75 19 39 40 75 47 80 6 6 33 51 59 100 26 50 51 92 56 93 4 2 8 9 8
16 0 7 11 23 25 36 14 13 25 30 25 38 0 20 37 80 74 120 29 32 82 62 135 77
106 31 244 -41 293 -151 7 -16 27 -50 45 -75 17 -26 47 -75 65 -109 39 -74 46
-85 76 -127 12 -17 22 -35 22 -41 0 -5 7 -15 15 -22 8 -7 15 -23 15 -36 0 -13
9 -28 20 -34 11 -6 20 -15 20 -20 0 -11 63 -114 73 -118 4 -2 7 -12 7 -23 0
-11 17 -43 38 -72 40 -57 45 -65 99 -164 19 -37 51 -88 69 -115 19 -26 34 -52
34 -57 0 -5 26 -50 59 -98 32 -49 62 -103 65 -120 4 -17 16 -39 27 -49 10 -9
19 -23 19 -31 0 -7 7 -13 16 -13 8 0 13 -4 10 -9 -3 -5 5 -25 19 -45 14 -20
25 -43 25 -50 0 -7 9 -25 20 -39 11 -14 20 -29 20 -34 0 -5 8 -16 18 -24 19
-18 54 -76 58 -97 3 -15 50 -88 72 -110 6 -7 12 -20 12 -27 0 -8 8 -22 19 -32
10 -10 22 -33 26 -50 3 -18 12 -36 18 -40 15 -10 51 -62 60 -85 3 -10 11 -18
16 -18 6 0 16 -19 23 -42 10 -36 45 -96 68 -118 3 -3 21 -35 39 -72 19 -38 37
-68 40 -68 4 0 12 -12 19 -28 19 -41 50 -94 61 -105 6 -6 11 -21 11 -34 0 -12
7 -26 16 -31 16 -9 85 -123 105 -174 15 -38 37 -36 117 9 37 21 81 43 97 49
17 5 50 23 75 39 64 41 132 75 151 75 9 0 24 9 34 20 10 11 26 20 36 20 10 0
21 5 25 11 3 6 31 22 60 35 51 23 67 45 43 60 -6 3 -17 22 -25 40 -8 19 -18
34 -22 34 -4 0 -14 16 -21 35 -7 19 -17 35 -22 35 -5 0 -9 6 -9 14 0 7 -7 20
-17 27 -9 8 -22 28 -30 44 -23 51 -60 109 -72 113 -6 2 -11 12 -11 23 0 11 -7
22 -15 25 -8 4 -15 13 -15 21 0 8 -8 27 -19 41 -10 15 -22 38 -26 52 -8 25
-36 68 -67 104 -10 11 -18 28 -18 38 0 10 -4 18 -9 18 -4 0 -23 29 -41 65 -18
36 -36 65 -40 65 -4 0 -15 15 -24 32 -20 39 -34 63 -62 103 -11 17 -23 38 -27
48 -3 9 -11 17 -17 17 -5 0 -10 6 -10 13 0 6 -11 34 -25 61 -14 27 -25 55 -25
62 0 7 -6 17 -12 21 -18 11 -56 67 -68 98 -5 14 -14 25 -19 25 -5 0 -12 15
-15 34 -4 19 -13 37 -21 40 -8 3 -15 11 -15 19 0 7 -11 24 -25 37 -14 13 -25
32 -25 42 0 10 -7 21 -15 24 -8 3 -17 22 -21 41 -4 23 -13 37 -25 40 -11 3
-19 13 -19 22 0 9 -9 27 -20 41 -11 14 -20 31 -20 38 0 7 -6 15 -14 18 -8 3
-17 21 -20 39 -4 19 -12 38 -19 42 -17 11 -55 67 -67 98 -5 14 -14 25 -19 25
-4 0 -11 14 -15 32 -3 17 -21 50 -40 72 -18 23 -48 71 -65 108 -18 37 -36 68
-39 70 -11 5 -56 79 -82 133 -13 28 -29 57 -37 65 -37 40 -54 66 -59 86 -3 12
-12 25 -18 27 -7 3 -16 20 -20 38 -3 18 -24 54 -46 80 -22 26 -40 51 -40 55 0
17 -51 114 -60 114 -6 0 -10 5 -10 11 0 6 -10 25 -22 42 -32 44 -58 94 -58
110 0 8 -18 33 -40 56 -23 24 -43 56 -47 71 -3 16 -11 31 -18 34 -7 2 -16 18
-20 35 -3 16 -13 35 -21 42 -8 6 -14 17 -14 25 0 7 -8 19 -18 26 -16 11 -72
115 -72 132 0 3 -8 14 -19 25 -28 28 -91 139 -91 160 0 10 -11 26 -25 35 -14
9 -25 23 -25 30 0 7 -7 19 -15 26 -8 7 -15 20 -15 30 0 9 -9 25 -20 35 -11 10
-20 26 -20 37 0 10 -8 26 -17 36 -18 19 -28 34 -65 101 -11 20 -24 40 -29 46
-5 5 -9 16 -9 24 0 8 -7 22 -16 32 -16 18 -41 59 -71 117 -20 39 -40 41 -49 5z"/>
</g>
</svg>
